<?xml version="1.0" encoding="iso-8859-1"?>
<!-- Generator: Adobe Illustrator 19.0.0, SVG Export Plug-In . SVG Version: 6.00 Build 0)  -->
<svg version="1.1" id="Layer_1" xmlns="http://www.w3.org/2000/svg" xmlns:xlink="http://www.w3.org/1999/xlink" x="0px" y="0px"
	 viewBox="0 0 512 512" style="enable-background:new 0 0 512 512;" xml:space="preserve">
<path style="fill:#FFFFFF;" d="M460.8,40.176H51.2c-17.208,0-31.2,14-31.2,31.2v272.696c0,17.2,14,31.2,31.2,31.2h409.6
	c17.2,0,31.2-14,31.2-31.2V71.376C492,54.168,478,40.176,460.8,40.176z M186.632,310.064V105.376L363.896,207.72L186.632,310.064z"
	/>
<path style="fill:#DB2B42;" d="M460.8,20.176H51.2c-28.16,0-51.2,23.04-51.2,51.2v272.696c0,28.16,23.04,51.2,51.2,51.2h409.6
	c28.16,0,51.2-23.04,51.2-51.2V71.376C512,43.216,488.96,20.176,460.8,20.176z M492,344.072c0,17.2-14,31.2-31.2,31.2H51.2
	c-17.208,0-31.2-14-31.2-31.2V71.376c0-17.208,14-31.2,31.2-31.2h409.6c17.2,0,31.2,14,31.2,31.2L492,344.072L492,344.072z"/>
<polygon style="fill:#2D2D2D;" points="186.632,310.064 363.896,207.72 186.632,105.376 "/>
<polygon style="fill:#DB2B42;" points="34.008,491.824 97.328,455.264 34.008,418.704 "/>
<rect x="126.664" y="445.264" style="fill:#C9C9C9;" width="266.64" height="20"/>
<g>
	<rect x="424.64" y="422.192" style="fill:#8AD5DD;" width="20" height="66.144"/>
	<rect x="458" y="422.192" style="fill:#8AD5DD;" width="20" height="66.144"/>
</g>
<g>
</g>
<g>
</g>
<g>
</g>
<g>
</g>
<g>
</g>
<g>
</g>
<g>
</g>
<g>
</g>
<g>
</g>
<g>
</g>
<g>
</g>
<g>
</g>
<g>
</g>
<g>
</g>
<g>
</g>
</svg>
